<?xml version="1.0" standalone="no"?><!DOCTYPE svg PUBLIC "-//W3C//DTD SVG 1.1//EN" "http://www.w3.org/Graphics/SVG/1.1/DTD/svg11.dtd"><svg t="1606705383275" class="icon" viewBox="0 0 1024 1024" version="1.1" xmlns="http://www.w3.org/2000/svg" p-id="2633" xmlns:xlink="http://www.w3.org/1999/xlink" width="200" height="200"><defs><style type="text/css"></style></defs><path d="M1009.28 547.136a50.112 50.112 0 0 0 0-71.104 50.432 50.432 0 0 0-71.168 0L475.52 938.176a50.24 50.24 0 0 0 0 71.104 50.56 50.56 0 0 0 71.232 0l462.528-462.144z" fill="#000000" p-id="2634"></path><path d="M547.392 14.656a50.368 50.368 0 0 0-71.104 0 50.24 50.24 0 0 0 0 71.168l461.76 461.312a50.24 50.24 0 0 0 71.168 0 50.112 50.112 0 0 0 0-71.104L547.392 14.656z" fill="#000000" p-id="2635"></path></svg>